<?xml version="1.0" ?><!DOCTYPE svg  PUBLIC '-//W3C//DTD SVG 1.1//EN'  'http://www.w3.org/Graphics/SVG/1.1/DTD/svg11.dtd'><svg enable-background="new 0 0 512 512" height="512px" id="Calque_1" version="1.1" viewBox="0 0 512 512" width="512px" xml:space="preserve" xmlns="http://www.w3.org/2000/svg" xmlns:xlink="http://www.w3.org/1999/xlink"><path d="M497.986,303.491c0.971-20.328,0.771-37.423-0.585-50.771c-0.499-5.166-3.19-9.895-7.329-12.931  c-0.167-0.124-13.656-10.244-26.229-26.37c9.251-0.55,16.678-3.242,22.109-8.022c5.646-4.964,8.758-11.896,8.758-19.518  c0-12.85-6.516-22.818-17.873-27.352c-7.405-2.956-15.201-2.998-20.957-2.999c-0.244-0.007-0.544-0.012-0.896-0.012  c-5.859,0-12.562,1.321-18.896,4.464c-5.903-12.477-11.918-24.164-17.535-34.033c-14.869-26.118-24.692-36.62-36.245-38.75  l-0.593-0.097c-0.473-0.067-0.981-0.126-1.453-0.161l-1.026-0.057c-20.776-1.057-90.926-4.505-121.228-4.505h-4.02  c-30.382,0-100.521,3.451-121.294,4.509l-0.885,0.047c-0.533,0.037-1.032,0.096-1.528,0.167l-0.587,0.096  c-11.554,2.125-21.379,12.627-36.251,38.749c-5.606,9.845-11.621,21.532-17.535,34.033c-6.333-3.142-13.032-4.461-18.892-4.461  c-0.353,0-0.652,0.005-0.897,0.012c-5.756,0-13.554,0.043-20.96,2.998c-11.363,4.532-17.88,14.502-17.88,27.353  c0,7.601,3.102,14.524,8.759,19.52c5.438,4.778,12.863,7.47,22.106,8.021C35.938,229.078,22.86,239.084,21.9,239.81  c-4.144,3.07-6.8,7.761-7.292,12.833c-1.363,13.42-1.563,30.513-0.593,50.837c-0.408,1.92-0.614,3.864-0.614,5.81v91.99  c0,15.632,12.719,28.351,28.351,28.351h40.779c13.851,0,25.412-9.981,27.869-23.131h291.203  c2.457,13.148,14.019,23.131,27.868,23.131h40.78c15.627,0,28.34-12.719,28.34-28.351v-91.99  C498.59,307.341,498.387,305.4,497.986,303.491z" fill="#E82828"/><linearGradient gradientTransform="matrix(1 0 0 -1 -41.6001 348.0991)" gradientUnits="userSpaceOnUse" id="SVGID_1_" x1="297.5999" x2="297.5999" y1="265.7263" y2="-81.5271"><stop offset="0" style="stop-color:#FFFFFF;stop-opacity:0"/><stop offset="1" style="stop-color:#000000;stop-opacity:0.3"/></linearGradient><path d="M497.99,303.486c0.971-20.328,0.771-37.422-0.586-50.771c-0.498-5.166-3.189-9.895-7.328-12.93  c-0.168-0.125-13.656-10.244-26.229-26.371c9.25-0.55,16.678-3.242,22.109-8.022c5.646-4.964,8.758-11.896,8.758-19.518  c0-12.85-6.516-22.818-17.873-27.352c-7.406-2.956-15.201-2.998-20.957-2.999c-0.244-0.007-0.545-0.012-0.896-0.012  c-5.859,0-12.561,1.321-18.895,4.464c-5.904-12.477-11.918-24.164-17.535-34.033c-14.869-26.118-24.693-36.62-36.246-38.75  l-0.592-0.097c-0.473-0.067-0.982-0.126-1.453-0.161l-1.027-0.057c-20.775-1.057-90.926-4.505-121.227-4.505h-4.02  c-30.382,0-100.521,3.451-121.294,4.509l-0.885,0.047c-0.533,0.037-1.032,0.096-1.528,0.167l-0.587,0.096  c-11.554,2.125-21.379,12.627-36.251,38.749c-5.606,9.845-11.621,21.532-17.535,34.033c-6.333-3.142-13.032-4.461-18.892-4.461  c-0.353,0-0.652,0.005-0.897,0.012c-5.756,0-13.554,0.043-20.96,2.998c-11.363,4.532-17.88,14.502-17.88,27.353  c0,7.601,3.102,14.524,8.759,19.52c5.438,4.778,12.863,7.47,22.106,8.021c-12.208,15.659-25.286,25.665-26.246,26.392  c-4.144,3.07-6.8,7.76-7.292,12.832c-1.363,13.42-1.563,30.514-0.593,50.838c-0.408,1.92-0.614,3.863-0.614,5.809v91.99  c0,15.633,12.719,28.352,28.351,28.352h40.779c13.851,0,25.412-9.982,27.869-23.131h291.204  c2.457,13.148,14.018,23.131,27.867,23.131h40.781c15.627,0,28.34-12.719,28.34-28.352v-91.99  C498.594,307.336,498.391,305.396,497.99,303.486z" fill="url(#SVGID_1_)"/><g><path d="M129.68,353.639H77.45c-0.761,0.029-13.16,0.729-17,8.221c-2.66,5.18-0.71,13.13,5.609,23.06H92.58   c0.01,0,0.01,0,0.01,0h39.82c-5.051-4.72-7.78-9.89-8.141-15.46C123.86,363.05,126.75,357.51,129.68,353.639z" fill="#FFFFFF"/><path d="M460.6,391.5h-37.89v9.78c0,3.729,3.029,6.76,6.76,6.76h40.78c3.729,0,6.76-3.029,6.76-6.76v-33.37   c-0.37,2.689-0.689,4.859-0.931,6.41C473.909,387.96,465.17,391.5,460.6,391.5z" fill="#FFFFFF"/><path d="M212.43,302.05h26.9c3.27,0,5.93-2.648,5.93-5.92v-13.21c0-3.27-2.66-5.93-5.93-5.93H191.8   c0.01,4.6,0.78,13.56,6.03,19.38C201.23,300.139,206.15,302.05,212.43,302.05z" fill="#FFFFFF"/><path d="M272.67,302.05h26.899c6.29,0,11.199-1.909,14.601-5.68c5.25-5.82,6.021-14.78,6.029-19.38H272.67   c-3.271,0-5.93,2.66-5.93,5.93v13.21C266.74,299.4,269.401,302.05,272.67,302.05z" fill="#FFFFFF"/><path d="M256,123.51c1.649-0.011,80.069-0.721,125.88,2.85c-5.261-8.23-10.311-15.49-12.33-18.35   c-23.311-1.15-84.42-4.051-111.54-4.051h-4.02c-27.12,0-88.23,2.9-111.54,4.051c-2.021,2.859-7.07,10.119-12.33,18.35   C175.94,122.79,254.4,123.5,256,123.51z" fill="#FFFFFF"/><path d="M455.071,191.64c0.141,0,0.279,0.01,0.42,0.029c3.029,0.38,12.529,0.75,16.221-2.489   c0.979-0.87,1.42-1.881,1.42-3.301c0-7.439-4.601-8.77-17.561-8.77c-0.09,0-0.181,0-0.261-0.01c-0.659-0.051-16.119-0.91-20.43,17   c0.989,2.35,2.069,4.64,3.21,6.88C441.17,194.97,447.031,191.64,455.071,191.64z" fill="#FFFFFF"/><path d="M57.42,265.4c-0.17,5.27,0.43,15.63,6.81,23.05c4.471,5.18,11.11,8.149,19.79,8.84   c-2.96-4.01-4.6-8.899-4.6-14.08c0-5.229,1.72-10.22,4.77-14.279C75.21,268,65.98,266.84,57.42,265.4z" fill="#FFFFFF"/><path d="M73.9,200.98c1.141-2.24,2.221-4.54,3.221-6.88c-4.341-18.061-19.761-17.051-20.431-17   c-0.08,0.01-0.17,0.01-0.26,0.01c-12.96,0-17.56,1.33-17.56,8.77c0,1.42,0.439,2.431,1.42,3.301   c3.68,3.239,13.189,2.869,16.22,2.489c0.14-0.02,0.28-0.029,0.42-0.029C64.96,191.64,70.83,194.96,73.9,200.98z" fill="#FFFFFF"/><path d="M35.92,374.32c-0.25-1.551-0.57-3.721-0.93-6.41v33.37c0,3.729,3.029,6.76,6.76,6.76H82.53   c3.73,0,6.761-3.029,6.761-6.76v-9.78H51.4C46.83,391.5,38.09,387.96,35.92,374.32z" fill="#FFFFFF"/><path d="M451.539,361.84c-3.819-7.398-16.25-8.17-16.989-8.199h-52.229c2.931,3.869,5.811,9.409,5.41,15.819   c-0.36,5.57-3.091,10.74-8.141,15.46h66.351C452.26,374.98,454.21,367.019,451.539,361.84z" fill="#FFFFFF"/><path d="M387.81,271.969c-5.42,0.271-8.739,0.391-8.859,0.391h-0.109c-6.91,0-12.54,5.63-12.54,12.55   c0,6.91,5.63,12.54,12.54,12.54h10.87c-3.03-4.04-4.71-8.99-4.71-14.24C385,279.2,385.97,275.37,387.81,271.969z" fill="#FFFFFF"/><path d="M427.81,268.929c3.051,4.061,4.771,9.051,4.771,14.279c0,5.181-1.64,10.07-4.6,14.08   c8.689-0.7,15.35-3.67,19.81-8.87c6.4-7.45,6.979-17.77,6.801-23.02C446.031,266.83,436.789,268,427.81,268.929z" fill="#FFFFFF"/><path d="M428.571,196.11c-0.061-0.14-0.12-0.29-0.181-0.43c-0.01-0.021-0.021-0.03-0.029-0.051   c-8.971-21.369-19.359-42.85-28.561-59c-14.21-24.939-20.149-27.83-21.261-28.159c-0.159-0.011-0.39-0.021-0.659-0.04   c6.199,8.989,18.109,26.869,23.3,38.85c4.99,11.52,12.71,32.67,17.32,45.31c1.88,5.16,3.369,9.24,3.97,10.75   c0.41,1.011,0.28,2.16-0.33,3.061c-0.609,0.91-1.63,1.45-2.72,1.45H92.58c-1.09,0-2.11-0.54-2.721-1.45   c-0.609-0.9-0.739-2.05-0.33-3.061c0.591-1.51,2.08-5.56,3.95-10.699c4.62-12.65,12.34-33.83,17.34-45.36   c5.19-11.98,17.101-29.86,23.301-38.85c-0.28,0.02-0.5,0.029-0.66,0.04c-1.11,0.329-7.061,3.22-21.26,28.159   C103,152.77,92.61,174.24,83.64,195.61c-0.01,0.03-0.03,0.06-0.04,0.1c-0.06,0.13-0.12,0.271-0.17,0.4   c-13.72,32.75-41.33,55.37-47.49,60.14c-1.34,14.4-1.13,32-0.229,49.23c0,0.01,0,0.02,0,0.02c1.59,30.07,5.31,59,6.71,67.78   c1.8,11.3,8.35,11.64,9.09,11.64h6.87c-5.97-10.59-7.25-19.359-3.771-26.1c5.73-11.12,21.98-11.74,22.67-11.771H137.3   c1.41,0,2.66,0.892,3.11,2.221c0.46,1.319,0.029,2.79-1.07,3.66c-0.08,0.069-9.08,7.329-8.49,16.149   c0.37,5.601,4.57,10.92,12.48,15.84h225.34c7.92-4.92,12.13-10.26,12.489-15.87c0.55-8.729-8.41-16.05-8.5-16.119   c-1.109-0.87-1.54-2.341-1.08-3.66c0.46-1.329,1.71-2.221,3.12-2.221h60.021c0.689,0.03,16.939,0.65,22.67,11.771   c3.479,6.739,2.2,15.5-3.771,26.1h6.92c0.69,0,7.24-0.34,9.03-11.64c1.399-8.78,5.13-37.71,6.72-67.78c0-0.01,0-0.01,0-0.01   c0.9-17.23,1.11-34.84-0.229-49.24C469.901,251.48,442.281,228.86,428.571,196.11z M260.16,282.92c0-6.899,5.608-12.52,12.51-12.52   h50.689c1.689,0,3.101,1.279,3.279,2.949c0.07,0.689,1.689,17.131-7.55,27.399c-4.71,5.24-11.28,7.891-19.521,7.891h-27.149   c-0.09,0-0.17-0.011-0.26-0.011c-6.66-0.27-12-5.77-12-12.5L260.16,282.92L260.16,282.92z M185.36,273.349   c0.181-1.67,1.591-2.949,3.28-2.949h50.69c6.899,0,12.51,5.619,12.51,12.52v13.21c0,6.73-5.34,12.23-12,12.5   c-0.09,0-0.17,0.011-0.26,0.011h-27.15c-8.24,0-14.81-2.649-19.52-7.891C183.67,290.48,185.29,274.04,185.36,273.349z    M133.17,304.03h-19.33c0,0,0,0-0.01,0H88.1c-12.72,0-22.439-3.811-28.89-11.32c-10.83-12.63-8.16-30.91-8.05-31.68   c0.14-0.88,0.619-1.66,1.35-2.181c0.72-0.521,1.62-0.721,2.5-0.561c32.06,5.83,76.46,7.431,78.21,7.49   c10.51,0.029,19.06,8.6,19.06,19.13C152.28,295.45,143.71,304.03,133.17,304.03z M372.651,372.62c-2.41,5.41-8.96,8.16-19.46,8.16   H158.81c-10.51,0-17.06-2.75-19.47-8.16c-4.311-9.689,7.31-22.99,8.649-24.479c0.62-0.689,1.511-1.091,2.44-1.091h211.14   c0.931,0,1.819,0.4,2.439,1.091C365.35,349.63,376.96,362.929,372.651,372.62z M452.789,292.71   c-6.449,7.511-16.17,11.32-28.89,11.32H398.17c-0.011,0-0.011,0-0.011,0c-0.01,0-0.01,0-0.021,0h-19.3c-0.011,0-0.011,0-0.011,0   c-10.54,0-19.109-8.58-19.109-19.12c0-10.53,8.54-19.101,19.061-19.13c1.75-0.061,46.141-1.66,78.21-7.49   c0.88-0.16,1.779,0.04,2.5,0.561s1.21,1.301,1.34,2.181C460.949,261.8,463.619,280.09,452.789,292.71z" fill="#FFFFFF"/><path d="M151.95,353.639c-3.421,4.17-8.44,12.141-6.591,16.301c1.221,2.739,6,4.25,13.45,4.25h194.38   c7.449,0,12.22-1.511,13.449-4.25c1.851-4.16-3.17-12.12-6.59-16.301H151.95z" fill="#FFFFFF"/><path d="M133.16,272.36h-0.11c-0.12,0-3.44-0.12-8.86-0.391c1.84,3.399,2.811,7.229,2.811,11.239   c0,5.25-1.681,10.2-4.71,14.24h10.87c6.909,0,12.54-5.63,12.54-12.54C145.7,277.99,140.07,272.36,133.16,272.36z" fill="#FFFFFF"/><path d="M152.28,284.91c0-10.53-8.55-19.101-19.06-19.13c-1.75-0.061-46.15-1.66-78.21-7.49   c-0.88-0.16-1.78,0.04-2.5,0.561c-0.73,0.521-1.21,1.301-1.35,2.181c-0.11,0.77-2.78,19.05,8.05,31.68   c6.45,7.511,16.17,11.32,28.89,11.32h25.73c0.01,0,0.01,0,0.01,0h19.33C143.71,304.03,152.28,295.45,152.28,284.91z M84.02,297.29   c-8.68-0.689-15.319-3.66-19.79-8.84c-6.38-7.42-6.979-17.78-6.81-23.05c8.56,1.438,17.79,2.6,26.77,3.529   c-3.05,4.061-4.77,9.051-4.77,14.279C79.42,288.389,81.06,293.28,84.02,297.29z M112.86,297.45h-19.3   c-4.75-3.22-7.56-8.479-7.56-14.24c0-5.279,2.42-10.229,6.52-13.47c8.58,0.779,16.63,1.35,23.26,1.75   c2.99,3.189,4.641,7.3,4.641,11.72C120.42,288.969,117.61,294.23,112.86,297.45z M133.16,297.45h-10.87   c3.029-4.04,4.71-8.99,4.71-14.24c0-4.01-0.971-7.84-2.811-11.239c5.42,0.271,8.74,0.391,8.86,0.391h0.11   c6.909,0,12.54,5.63,12.54,12.55C145.7,291.82,140.07,297.45,133.16,297.45z" fill="#052C49"/><path d="M212.43,308.639h27.15c0.09,0,0.17-0.011,0.26-0.011c6.66-0.27,12-5.77,12-12.5v-13.21   c0-6.899-5.61-12.52-12.51-12.52h-50.69c-1.689,0-3.1,1.279-3.28,2.949c-0.069,0.689-1.689,17.131,7.551,27.399   C197.62,305.99,204.19,308.639,212.43,308.639z M239.33,276.99c3.27,0,5.93,2.66,5.93,5.93v13.21c0,3.271-2.66,5.92-5.93,5.92   h-26.9c-6.28,0-11.2-1.909-14.6-5.68c-5.25-5.82-6.021-14.78-6.03-19.38H239.33z" fill="#052C49"/><path d="M361.571,347.05H150.43c-0.93,0-1.82,0.4-2.44,1.091c-1.34,1.489-12.96,14.79-8.649,24.479   c2.41,5.41,8.96,8.16,19.47,8.16h194.38c10.5,0,17.05-2.75,19.46-8.16c4.311-9.689-7.301-22.99-8.641-24.479   C363.39,347.45,362.5,347.05,361.571,347.05z M366.64,369.94c-1.229,2.739-6,4.25-13.449,4.25H158.81   c-7.45,0-12.229-1.511-13.45-4.25c-1.85-4.16,3.17-12.131,6.591-16.301h208.1C363.47,357.82,368.49,365.78,366.64,369.94z" fill="#052C49"/><path d="M459.49,258.849c-0.721-0.521-1.62-0.721-2.5-0.561c-32.069,5.83-76.46,7.431-78.21,7.49   c-10.521,0.029-19.061,8.6-19.061,19.13c0,10.54,8.569,19.12,19.109,19.12c0,0,0,0,0.011,0h19.3c0.011,0,0.011,0,0.021,0   c0,0,0,0,0.011,0H423.9c12.72,0,22.439-3.812,28.89-11.32c10.83-12.62,8.16-30.91,8.04-31.68   C460.699,260.15,460.21,259.37,459.49,258.849z M378.84,297.45c-6.91,0-12.54-5.63-12.54-12.54c0-6.92,5.63-12.55,12.54-12.55   h0.109c0.12,0,3.439-0.12,8.859-0.391c-1.84,3.399-2.811,7.229-2.811,11.239c0,5.25,1.681,10.2,4.711,14.24L378.84,297.45   L378.84,297.45z M418.441,297.45H399.14c-4.75-3.22-7.561-8.479-7.561-14.24c0-4.42,1.65-8.529,4.641-11.72   c6.63-0.4,14.681-0.971,23.261-1.75c4.1,3.24,6.521,8.189,6.521,13.47C426,288.969,423.18,294.23,418.441,297.45z M447.789,288.42   c-4.46,5.2-11.119,8.17-19.81,8.87c2.96-4.01,4.6-8.899,4.6-14.08c0-5.229-1.72-10.22-4.771-14.279   c8.979-0.931,18.221-2.101,26.78-3.529C454.77,270.65,454.191,280.969,447.789,288.42z" fill="#052C49"/><path d="M272.16,308.63c0.09,0,0.17,0.011,0.26,0.011h27.149c8.239,0,14.811-2.649,19.521-7.891   c9.239-10.27,7.62-26.71,7.55-27.399c-0.18-1.67-1.59-2.949-3.279-2.949h-50.689c-6.9,0-12.51,5.619-12.51,12.52v13.21   C260.16,302.86,265.5,308.36,272.16,308.63z M266.74,282.92c0-3.27,2.66-5.93,5.931-5.93h47.529c-0.01,4.6-0.779,13.56-6.029,19.38   c-3.4,3.771-8.311,5.68-14.601,5.68H272.67c-3.271,0-5.931-2.648-5.931-5.92V282.92z" fill="#052C49"/><path d="M482.89,305.05c0.92-17.869,1.08-36.13-0.42-50.89c-0.09-0.93-0.58-1.77-1.33-2.32   c-0.271-0.199-22.899-16.97-38.659-42.97c0.989-7.09,5.05-10.58,12.39-10.64c2.29,0.27,14.851,1.47,21.181-4.101   c2.399-2.109,3.66-4.96,3.66-8.25c0-15.319-14.46-15.35-24.08-15.35c-1.91-0.08-17.189-0.19-24.551,14.7   c-8.25-18.95-17.369-37.471-25.561-51.86c-15.189-26.68-22.079-30.71-25.93-31.42c-0.141-0.02-0.29-0.04-0.431-0.05   c-0.869-0.04-87.271-4.521-121.149-4.521h-4.02c-33.881,0-120.29,4.48-121.15,4.521c-0.15,0.01-0.29,0.03-0.43,0.05   c-3.86,0.71-10.74,4.74-25.931,31.42c-8.189,14.38-17.31,32.91-25.56,51.851c-7.36-14.881-22.62-14.771-24.55-14.69   c-9.62,0-24.09,0.03-24.09,15.35c0,3.29,1.27,6.141,3.659,8.25c6.341,5.57,18.9,4.37,21.19,4.101c7.34,0.06,11.4,3.55,12.38,10.64   c-15.74,25.96-38.39,42.771-38.65,42.97c-0.76,0.551-1.239,1.391-1.329,2.32c-1.5,14.76-1.341,33.021-0.421,50.89   c-0.46,1.37-0.71,2.78-0.71,4.24v91.99c0,7.359,5.99,13.35,13.351,13.35h40.78c7.359,0,13.35-5.989,13.35-13.35v-9.78h46.49   c0.01,0,0.01,0,0.02,0h227.22c0.01,0,0.01,0,0.01,0h46.5v9.78c0,7.359,5.99,13.35,13.351,13.35h40.78   c7.359,0,13.34-5.989,13.34-13.35v-91.99C483.59,307.83,483.35,306.42,482.89,305.05z M455.31,177.1   c0.08,0.01,0.171,0.01,0.261,0.01c12.96,0,17.561,1.33,17.561,8.77c0,1.42-0.439,2.431-1.42,3.301   c-3.69,3.239-13.19,2.869-16.221,2.489c-0.141-0.02-0.279-0.029-0.42-0.029c-8.04,0-13.899,3.33-16.979,9.34   c-1.141-2.24-2.221-4.53-3.21-6.88C439.191,176.19,454.651,177.05,455.31,177.1z M253.99,103.96h4.02   c27.12,0,88.229,2.9,111.54,4.051c2.021,2.859,7.069,10.119,12.33,18.35c-45.811-3.57-124.229-2.86-125.88-2.85   c-1.601-0.011-80.061-0.721-125.88,2.85c5.26-8.23,10.31-15.49,12.33-18.35C165.76,106.86,226.87,103.96,253.99,103.96z    M386.22,133.33c3.561,5.88,6.84,11.78,8.92,16.57c4.91,11.34,12.591,32.38,17.181,44.95c0.899,2.479,1.689,4.64,2.34,6.42H97.34   c0.64-1.771,1.43-3.91,2.33-6.37c4.59-12.59,12.27-33.65,17.189-45c2.07-4.79,5.36-10.69,8.92-16.57   c44.73-4.02,129.33-3.24,130.19-3.229H256c0.01,0,0.01,0,0.02,0h0.01C256.89,130.09,341.481,129.31,386.22,133.33z M56.93,191.64   c-0.14,0-0.28,0.01-0.42,0.029c-3.03,0.38-12.54,0.75-16.22-2.489c-0.98-0.87-1.42-1.881-1.42-3.301c0-7.439,4.6-8.77,17.56-8.77   c0.09,0,0.18,0,0.26-0.01c0.67-0.051,16.09-1.061,20.431,17c-1,2.34-2.08,4.64-3.221,6.88C70.83,194.96,64.96,191.64,56.93,191.64z    M89.29,401.28c0,3.729-3.03,6.76-6.761,6.76H41.75c-3.73,0-6.76-3.029-6.76-6.76v-33.37c0.359,2.689,0.68,4.859,0.93,6.41   c2.17,13.64,10.91,17.18,15.479,17.18H89.29V401.28z M92.59,384.92c0,0,0,0-0.01,0H66.06c-6.319-9.93-8.27-17.88-5.609-23.06   c3.84-7.49,16.239-8.19,17-8.221h52.229c-2.93,3.869-5.82,9.409-5.41,15.819c0.36,5.57,3.09,10.74,8.141,15.46L92.59,384.92   L92.59,384.92z M379.59,384.92c5.05-4.72,7.779-9.89,8.141-15.46c0.399-6.41-2.48-11.949-5.41-15.819h52.229   c0.739,0.029,13.17,0.801,16.989,8.199c2.671,5.181,0.721,13.142-5.6,23.08H379.59z M477.01,401.28c0,3.729-3.029,6.76-6.76,6.76   h-40.78c-3.729,0-6.76-3.029-6.76-6.76v-9.78h37.89c4.57,0,13.311-3.54,15.479-17.18c0.24-1.551,0.561-3.721,0.931-6.41V401.28   L477.01,401.28z M476.289,305.49c0,0,0,0,0,0.01c-1.59,30.07-5.319,59-6.72,67.78c-1.79,11.3-8.34,11.64-9.03,11.64h-6.92   c5.971-10.6,7.25-19.359,3.771-26.1c-5.729-11.12-21.979-11.74-22.67-11.771h-60.021c-1.41,0-2.66,0.892-3.12,2.221   c-0.46,1.319-0.029,2.79,1.08,3.66c0.091,0.069,9.051,7.391,8.5,16.119c-0.359,5.61-4.569,10.95-12.489,15.87H143.33   c-7.91-4.92-12.11-10.239-12.48-15.84c-0.59-8.82,8.41-16.08,8.49-16.149c1.1-0.87,1.53-2.341,1.07-3.66   c-0.45-1.329-1.7-2.221-3.11-2.221H77.28c-0.689,0.03-16.939,0.65-22.67,11.771c-3.479,6.739-2.199,15.51,3.771,26.1h-6.87   c-0.74,0-7.29-0.34-9.09-11.64c-1.4-8.78-5.12-37.71-6.71-67.78c0,0,0-0.01,0-0.02c-0.9-17.23-1.11-34.83,0.229-49.23   c6.16-4.77,33.771-27.39,47.49-60.14c0.05-0.13,0.11-0.271,0.17-0.4c0.01-0.04,0.03-0.069,0.04-0.1   c8.97-21.37,19.36-42.84,28.561-58.98c14.199-24.939,20.149-27.83,21.26-28.159c0.16-0.011,0.38-0.021,0.66-0.04   c-6.2,8.989-18.11,26.869-23.301,38.85c-5,11.53-12.72,32.71-17.34,45.36c-1.87,5.14-3.359,9.189-3.95,10.699   c-0.409,1.011-0.279,2.16,0.33,3.061c0.61,0.91,1.631,1.45,2.721,1.45h326.84c1.09,0,2.109-0.54,2.72-1.45   c0.61-0.9,0.74-2.05,0.33-3.061c-0.601-1.51-2.09-5.59-3.97-10.75c-4.61-12.64-12.33-33.79-17.32-45.31   c-5.189-11.98-17.101-29.86-23.3-38.85c0.271,0.02,0.5,0.029,0.659,0.04c1.11,0.329,7.051,3.22,21.261,28.159   c9.2,16.15,19.59,37.631,28.561,59c0.01,0.021,0.021,0.03,0.029,0.051c0.061,0.14,0.12,0.29,0.181,0.43   c13.71,32.75,41.33,55.37,47.489,60.14C477.401,270.65,477.191,288.26,476.289,305.49z" fill="#052C49"/></g></svg>