<?xml version="1.0" encoding="UTF-8" standalone="no"?>
<svg id="svg2" xmlns:rdf="http://www.w3.org/1999/02/22-rdf-syntax-ns#" xmlns="http://www.w3.org/2000/svg" height="2304" width="2399.5" version="1.1" xmlns:cc="http://creativecommons.org/ns#" xmlns:dc="http://purl.org/dc/elements/1.1/">
<g id="g4197">
<path id="path4145" d="m335.75 1345.9c-184.43-526.94-335.52-959.07-335.75-960.29-0.38434-2.01 102.58-49.62 107.32-49.61 0.96168 0.001 743.15 1889.5 744.16 1894.5 0.3655 1.8202-174.51 73.476-179.32 73.476-0.59033 0-151.97-431.14-336.4-958.09z"/>
<path id="path4141" fill="#f2f2f2" d="m479.24 1092.4c-221.54-563.11-287.61-732.01-286.84-733.27 7.92-12.81 103.37-85.21 156.29-118.55 226.19-142.47 522.47-212.74 817.01-193.76l10.476 0.67518 237.44 534.25c130.59 293.84 237.59 534.1 237.77 533.92 0.1795-0.1795-52.581-196.04-117.25-435.25-64.665-239.21-117.8-436.29-118.09-437.96l-0.516-3.0317 17.345-3.7869c222.72-48.624 369.79-113.98 489.63-217.57 7.5438-6.5212 15.038-13.257 16.653-14.968 1.7-1.7002 3.5-3.1 4.2-3.1 1.0301 0 455.19 1145.4 456.25 1150.7 0.7419 3.6924-13.803 26.955-29.267 46.807-137.48 176.49-482.03 362.83-734.1 397-156.36 21.198-262.46-15.13-311.29-106.58-6.8919-12.907-7.3571-11.514 9.2052-27.574 83.584-81.054 212.39-148.52 266.24-139.44 49.089 8.2692 39.627 66.512-28.664 176.44l-6.9354 11.164 5.7665-6.1213c212.42-225.49 188.76-339.31-50.521-242.99-248.98 100.22-584.66 349.95-741.13 551.36-5.6613 7.2875-10.616 13.25-11.01 13.25-0.39424 0-130.25-329.23-288.57-731.62z"/>
<path id="path4" d="m668.98 99.711c-185.2 52.799-345.52 142.32-477.02 260.67l179.35 455.84 60.609-47.91-0.004-0.0117c119.97-95.98 239.95-167.97 407.92-239.95l-120.96-302.41-0.47656-0.0273-21.637-55.258-0.89258-2.2305 0.0176-0.006zm170.86 428.64 191.96 443.91c112.73-48.314 271.77-103.22 403.12-122.47l0.7969-0.7793 91.461-9.9082-181.5-408.37-73.953 1.5723 0.024 0.0527c-155.9 12.01-311.89 48.01-431.86 96zm191.96 443.91c-140.47 70.235-280.93 149.62-410.26 255.96-22.925 18.287-46.909 36.51-67.477 52.494l213.79 543.38c106.09-141.46 281.67-288.69 452.78-401.9l-40.387-94.037 0.457-0.3204zm533.38-769.13c-48.416 14.131-98.297 26.178-149.45 37.271l122.38 453.51c62.388-11.998 112.78-26.395 187.16-55.189l-76.094-207.9-0.3125 0.23242zm160.09 435.59 146.37 405.52c142.16-65.251 229.99-125.98 316.27-208.56l-0.023-0.36719 61.557-62.297-141.23-356.8-71.734 55.709-0.8008-0.19922c-109.06 84.355-199.77 130.11-310.4 166.99zm146.37 405.52c-55.189 28.794-146.37 64.788-215.96 83.984l-0.1152-0.2597-5.2402 1.5449 41.934 101.34c64.01 29.859-6.8158 155.86-132.56 283.7 215.96-326.34-119.98-170.37-239.95-38.392 89.139 200.56 426.63 129.77 704.94-15.887l-25.26-66.021c-0.2045 0.1064-0.4109 0.2179-0.6153 0.3242l-13.688-37.705-3.164-8.2695 0.1035-0.1582z" fill="#343434"/>
</g>
</svg>
